<svg width="30" height="30" viewBox="0 0 30 30" fill="none" xmlns="http://www.w3.org/2000/svg">
<rect width="30" height="30" rx="15" fill="white"/>
<path d="M21 16.2075V13.0196C20.9986 11.5993 20.4958 10.2253 19.5806 9.14092C18.6655 8.05657 17.3971 7.33186 16 7.09513V6.00246C16 5.73659 15.8946 5.48161 15.7071 5.29361C15.5196 5.10562 15.2652 5 15 5C14.7348 5 14.4804 5.10562 14.2929 5.29361C14.1054 5.48161 14 5.73659 14 6.00246V7.09513C12.6029 7.33186 11.3345 8.05657 10.4194 9.14092C9.50425 10.2253 9.00144 11.5993 9 13.0196V16.2075C8.41645 16.4143 7.911 16.797 7.55294 17.3031C7.19488 17.8092 7.00174 18.4139 7 19.0344V21.0393C7 21.3052 7.10536 21.5601 7.29289 21.7481C7.48043 21.9361 7.73478 22.0418 8 22.0418H11.14C11.3703 22.8912 11.873 23.6411 12.5706 24.1757C13.2682 24.7103 14.1219 25 15 25C15.8781 25 16.7318 24.7103 17.4294 24.1757C18.127 23.6411 18.6297 22.8912 18.86 22.0418H22C22.2652 22.0418 22.5196 21.9361 22.7071 21.7481C22.8946 21.5601 23 21.3052 23 21.0393V19.0344C22.9983 18.4139 22.8051 17.8092 22.4471 17.3031C22.089 16.797 21.5836 16.4143 21 16.2075ZM11 13.0196C11 11.9562 11.4214 10.9363 12.1716 10.1843C12.9217 9.43229 13.9391 9.00982 15 9.00982C16.0609 9.00982 17.0783 9.43229 17.8284 10.1843C18.5786 10.9363 19 11.9562 19 13.0196V16.027H11V13.0196ZM15 23.0442C14.651 23.0421 14.3086 22.9485 14.0068 22.7726C13.7051 22.5967 13.4545 22.3448 13.28 22.0418H16.72C16.5455 22.3448 16.2949 22.5967 15.9932 22.7726C15.6914 22.9485 15.349 23.0421 15 23.0442ZM21 20.0368H9V19.0344C9 18.7685 9.10536 18.5135 9.29289 18.3255C9.48043 18.1375 9.73478 18.0319 10 18.0319H20C20.2652 18.0319 20.5196 18.1375 20.7071 18.3255C20.8946 18.5135 21 18.7685 21 19.0344V20.0368Z" fill="#00A9D7"/>
<circle cx="19.5" cy="8.5" r="2.5" fill="#E83E8C"/>
</svg>
